<svg xmlns="http://www.w3.org/2000/svg" viewBox="0 0 24 24"><defs><style>.c{fill:#fff;}.d{fill:#121212;}</style></defs><g id="a"><rect height="24" width="24" class="d"/></g><g id="b"><g><path d="M14,4.1c.24-.14,.56-.14,.8,0l4.8,2.78c.24,.14,.4,.41,.4,.69v11.63c0,.44-.32,.8-.8,.8h-4.8c-.24,0-.4-.09-.56-.23-.16-.15-.24-.35-.24-.57V4.8c0-.29,.16-.55,.4-.7Zm1.2,2.08v12.22h3.2V8.03l-3.2-1.85Z" class="c"/><path d="M4.8,20c-.48,0-.8-.36-.8-.8V4.8c0-.44,.32-.8,.8-.8s.8,.36,.8,.8v14.4c0,.44-.32,.8-.8,.8Z" class="c"/><path d="M9.6,20c-.48,0-.8-.36-.8-.8V4.8c0-.44,.32-.8,.8-.8s.8,.36,.8,.8v14.4c0,.44-.32,.8-.8,.8Z" class="c"/></g></g></svg>