<svg version="1.1" xmlns="http://www.w3.org/2000/svg" x="0" y="0" viewBox="0 0 1000 273.548" enable-background="new 0 0 1000 273.5480042" xml:space="preserve" width="150" height="50"><path fill="#04041c" d="M142.2.11C66.717-2.89 3.11 55.866.11 131.348s55.768 139.09 131.238 142.09c75.483 3 139.09-55.756 142.09-131.238C276.426 66.717 217.67 3.098 142.2.11m57.73 200.37c-1.7 3-5.013 4.501-8.238 4.05a8.2 8.2 0 0 1-2.9-.987c-18.077-10.288-37.78-16.989-58.556-19.914s-41.567-1.913-61.782 3a8.164 8.164 0 0 1-9.863-6.013 8.164 8.164 0 0 1 6.013-9.864c22.227-5.4 45.08-6.513 67.907-3.3s44.48 10.576 64.37 21.89c3.912 2.238 5.287 7.213 3.062 11.139zm17.977-35.903c-2.787 5.15-9.238 7.076-14.389 4.288-21.152-11.439-44.054-18.952-68.07-22.328-24.014-3.375-48.092-2.462-71.581 2.7a10.6 10.6 0 0 1-3.763.15c-4.263-.6-7.914-3.775-8.889-8.238-1.262-5.725 2.363-11.388 8.089-12.65 25.965-5.714 52.58-6.727 79.108-3.001 26.515 3.725 51.83 12.026 75.207 24.677 5.163 2.788 7.076 9.226 4.288 14.39zm19.927-40.48c-2.625 5.051-8.088 7.664-13.414 6.914-1.437-.2-2.85-.65-4.212-1.35-24.628-12.814-51.156-21.277-78.846-25.165s-55.53-3.063-82.734 2.462c-7.075 1.438-13.963-3.137-15.401-10.2-1.438-7.076 3.138-13.965 10.2-15.402C83.557 75.243 114.36 74.33 145 78.63s59.993 13.676 87.271 27.865c6.4 3.325 8.889 11.214 5.563 17.614zM383.5 208.256c-23.59 0-43.843-8.163-52.306-17.439-.8-.913-.913-1.413-.913-2.525v-27.616c0-1.312 1.113-1.812 2.013-.7 10.176 12.702 31.853 23.078 49.593 23.078 14.114 0 23.59-3.826 23.59-16.327 0-7.463-3.526-12.301-22.778-17.74l-11.088-3.125c-25.703-7.25-41.33-15.826-41.33-40.416 0-21.765 20.152-40.917 53.818-40.917 16.527 0 32.954 5.138 42.43 12.201.8.6 1.112 1.213 1.112 2.313v25.103c0 1.712-1.412 2.212-2.725 1.112-7.663-6.35-22.477-14.914-40.017-14.914-17.539 0-25.802 7.864-25.802 15.114 0 7.664 5.338 9.776 24.39 15.427l9.476 2.825c29.328 8.764 41.329 21.065 41.329 41.43 0 26.202-21.765 43.141-50.793 43.141zm205.508-52.618c0-16.026 11.088-27.915 26.715-27.915s26.603 11.889 26.603 27.915-11.089 27.916-26.603 27.916-26.715-11.889-26.715-27.916m26.603 52.618c32.553 0 55.23-23.277 55.23-52.618s-22.677-52.617-55.23-52.617c-32.554 0-55.131 23.077-55.131 52.617s22.477 52.618 55.13 52.618M812.156 96.982v8.464h-17.14c-.912 0-1.412.5-1.412 1.412v20.152c0 .913.5 1.413 1.412 1.413h17.14v75.995c0 .913.5 1.413 1.412 1.413h25.803c.913 0 1.413-.5 1.413-1.413v-75.995h22.077l32.053 69.645-17.239 37.891c-.5 1.113.1 1.613 1.113 1.613h27.515c.913 0 1.313-.2 1.713-1.113l56.943-129.413c.4-.913-.1-1.613-1.113-1.613h-25.802c-.913 0-1.313.2-1.713 1.113l-26.003 62.494-26.102-62.494c-.4-.913-.8-1.113-1.713-1.113h-41.73v-6.65c0-10.889 7.364-15.927 16.827-15.927 5.639 0 11.79 2.925 16.127 5.538 1.013.6 1.713-.1 1.313-1.013l-9.076-21.664c-.3-.7-.7-1.113-1.413-1.513-4.438-2.313-11.689-4.338-18.752-4.338-21.364 0-33.666 16.327-33.666 37.091zM508.375 207.644c25.802 0 44.342-22.278 44.342-52.206s-18.752-51.805-44.555-51.805c-19.152 0-30.24 11.689-36.691 23.377v-20.152c0-.912-.5-1.412-1.413-1.412h-25.302c-.913 0-1.413.5-1.413 1.412v129.314c0 .912.5 1.412 1.413 1.412h25.302c.913 0 1.413-.5 1.413-1.412v-51.706c6.45 11.69 17.34 23.178 36.891 23.178zm215.284-.4c8.464 0 16.627-2.213 21.465-5.038.7-.4.8-.8.8-1.513v-19.152c0-1.013-.5-1.313-1.413-.8-2.925 1.613-6.75 2.925-11.988 2.925-8.264 0-13.502-4.838-13.502-15.526v-39.717h25.203c.912 0 1.412-.5 1.412-1.413v-20.152c0-.912-.5-1.412-1.412-1.412H719.02V79.143c0-1.113-.7-1.713-1.712-.913l-45.055 35.48c-.6.5-.8 1.012-.8 1.812v11.488c0 .913.5 1.413 1.412 1.413h17.54v43.942c0 23.79 13.701 34.879 33.266 34.879zm29.128-131.626c0 9.076 7.05 15.926 16.727 15.926s16.927-6.85 16.927-15.926-7.051-15.927-16.927-15.927-16.727 6.85-16.727 15.927m3.926 130.226h25.802c.913 0 1.413-.5 1.413-1.413v-97.56c0-.913-.5-1.413-1.413-1.413h-25.802c-.913 0-1.413.5-1.413 1.413v97.56c0 .912.5 1.413 1.413 1.413M470.87 155.25c4.638-15.527 15.314-27.415 29.828-27.415s23.377 10.476 23.377 27.615-9.576 27.815-23.377 27.815c-13.802 0-25.203-13.301-29.828-28.015m527.142-43.879c-1.325-2.287-3.163-4.075-5.513-5.375-2.35-1.288-4.975-1.938-7.9-1.938s-5.551.65-7.901 1.938c-2.35 1.3-4.188 3.088-5.513 5.375s-1.988 4.876-1.988 7.764.662 5.425 1.988 7.713c1.325 2.288 3.162 4.075 5.513 5.376 2.35 1.3 4.975 1.937 7.9 1.937s5.551-.65 7.901-1.937a14.07 14.07 0 0 0 5.513-5.376c1.325-2.288 1.988-4.85 1.988-7.713s-.663-5.476-1.988-7.764m-2.412 14.202c-1.076 1.9-2.576 3.375-4.488 4.45-1.913 1.063-4.088 1.6-6.501 1.6s-4.65-.537-6.563-1.6-3.4-2.55-4.463-4.45c-1.063-1.888-1.588-4.038-1.588-6.438s.525-4.538 1.588-6.413c1.062-1.876 2.55-3.35 4.463-4.413s4.1-1.6 6.563-1.6 4.588.537 6.5 1.6a11.46 11.46 0 0 1 4.489 4.45c1.075 1.9 1.612 4.038 1.612 6.438s-.537 4.488-1.612 6.388z"/><path fill="#04041c" d="M989.836 118.847c1.026-.75 1.538-1.75 1.538-2.988s-.5-2.287-1.5-3.037q-1.5-1.126-4.35-1.126h-6.701v14.002h3.238v-5.563h1.762l4.263 5.563h3.976l-4.663-5.9c.987-.188 1.825-.5 2.45-.963zm-4.825-1.237h-2.95v-3.426h3.063c.912 0 1.612.138 2.1.425.487.288.737.725.737 1.325 0 .563-.262.988-.762 1.263-.513.288-1.238.425-2.188.425z"/></svg>